<mxfile host="app.diagrams.net" modified="2022-02-16T12:49:40.465Z" agent="5.0 (Macintosh; Intel Mac OS X 10_15_7) AppleWebKit/537.36 (KHTML, like Gecko) Chrome/98.0.4758.80 Safari/537.36" etag="53JTKozLFxBgrgX76IE8" version="16.1.0" type="github">
  <diagram id="pbOskcwxOEKhBKgvQ-5w" name="Page-1">
    <mxGraphModel dx="1298" dy="809" grid="1" gridSize="10" guides="1" tooltips="1" connect="1" arrows="1" fold="1" page="1" pageScale="1" pageWidth="850" pageHeight="1100" math="0" shadow="0">
      <root>
        <mxCell id="0" />
        <mxCell id="1" parent="0" />
        <mxCell id="gr9fmQrbNyccbfHBmp3z-1" value="" style="verticalLabelPosition=bottom;html=1;verticalAlign=top;strokeWidth=1;align=center;outlineConnect=0;dashed=0;outlineConnect=0;shape=mxgraph.aws3d.application;fillColor=#4286c5;strokeColor=#57A2D8;aspect=fixed;" vertex="1" parent="1">
          <mxGeometry x="168" y="180" width="62" height="68.8" as="geometry" />
        </mxCell>
        <mxCell id="gr9fmQrbNyccbfHBmp3z-2" value="" style="verticalLabelPosition=bottom;html=1;verticalAlign=top;strokeWidth=1;align=center;outlineConnect=0;dashed=0;outlineConnect=0;shape=mxgraph.aws3d.elasticMapReduce;fillColor=#ECECEC;strokeColor=#5E5E5E;aspect=fixed;" vertex="1" parent="1">
          <mxGeometry x="530" y="210" width="123" height="133" as="geometry" />
        </mxCell>
        <mxCell id="gr9fmQrbNyccbfHBmp3z-3" value="" style="verticalLabelPosition=bottom;html=1;verticalAlign=top;strokeWidth=1;align=center;outlineConnect=0;dashed=0;outlineConnect=0;shape=mxgraph.aws3d.dashedEdge;fillColor=#000000;aspect=fixed;" vertex="1" parent="1">
          <mxGeometry x="410" y="280" width="110.6" height="63" as="geometry" />
        </mxCell>
        <mxCell id="gr9fmQrbNyccbfHBmp3z-4" value="" style="verticalLabelPosition=bottom;html=1;verticalAlign=top;strokeWidth=1;align=center;outlineConnect=0;dashed=0;outlineConnect=0;shape=mxgraph.aws3d.dashedArrowlessEdge;fillColor=#000000;aspect=fixed;" vertex="1" parent="1">
          <mxGeometry x="230" y="228.97" width="180" height="102.53" as="geometry" />
        </mxCell>
        <mxCell id="gr9fmQrbNyccbfHBmp3z-5" value="" style="verticalLabelPosition=bottom;html=1;verticalAlign=top;strokeWidth=1;align=center;outlineConnect=0;dashed=0;outlineConnect=0;shape=mxgraph.aws3d.flatEdge;fillColor=#000000;aspect=fixed;" vertex="1" parent="1">
          <mxGeometry x="216.89" y="350" width="193.11" height="110" as="geometry" />
        </mxCell>
        <mxCell id="gr9fmQrbNyccbfHBmp3z-6" value="" style="verticalLabelPosition=bottom;html=1;verticalAlign=top;strokeWidth=1;align=center;outlineConnect=0;dashed=0;outlineConnect=0;shape=mxgraph.aws3d.arrowNE;fillColor=#000000;aspect=fixed;" vertex="1" parent="1">
          <mxGeometry x="240" y="380" width="353" height="201.71" as="geometry" />
        </mxCell>
        <mxCell id="gr9fmQrbNyccbfHBmp3z-8" style="edgeStyle=orthogonalEdgeStyle;orthogonalLoop=1;jettySize=auto;html=1;rounded=1;dashed=1;strokeWidth=2;" edge="1" parent="1" source="gr9fmQrbNyccbfHBmp3z-7" target="gr9fmQrbNyccbfHBmp3z-2">
          <mxGeometry relative="1" as="geometry">
            <Array as="points">
              <mxPoint x="725" y="330" />
              <mxPoint x="633" y="330" />
              <mxPoint x="633" y="363" />
              <mxPoint x="592" y="363" />
            </Array>
          </mxGeometry>
        </mxCell>
        <mxCell id="gr9fmQrbNyccbfHBmp3z-7" value="" style="verticalLabelPosition=bottom;html=1;verticalAlign=top;strokeWidth=1;align=center;outlineConnect=0;dashed=0;outlineConnect=0;shape=mxgraph.aws3d.worker;fillColor=#ECECEC;strokeColor=#5E5E5E;aspect=fixed;" vertex="1" parent="1">
          <mxGeometry x="653" y="331.5" width="143.56" height="97" as="geometry" />
        </mxCell>
      </root>
    </mxGraphModel>
  </diagram>
</mxfile>
